<?xml version="1.0" encoding="UTF-8"?>
<svg version="1.1" xmlns="http://www.w3.org/2000/svg" width="192" height="192">
<path d="M0 0 C1.55207153 0.0002417 1.55207153 0.0002417 3.13549805 0.00048828 C11.17771757 0.12011732 21.08949494 0.33949494 27.125 6.375 C28.91770313 7.09320344 30.73406119 7.75337937 32.5625 8.375 C35.82963616 9.48869755 38.23274507 10.44683005 41.125 12.375 C41.125 13.035 41.125 13.695 41.125 14.375 C41.84945312 14.61347656 42.57390625 14.85195313 43.3203125 15.09765625 C55.34700609 20.57499442 63.12602031 35.74134506 68.125 47.375 C74.60591973 65.11651776 73.64690973 85.24192271 67.25 102.8125 C66.88334229 103.82485718 66.88334229 103.82485718 66.50927734 104.85766602 C64.92343095 108.97478703 62.98014301 112.03713178 60.125 115.375 C59.650625 116.365 59.17625 117.355 58.6875 118.375 C55.80941867 123.90091615 51.40136154 127.20918308 46.125 130.375 C45.465 130.375 44.805 130.375 44.125 130.375 C44.125 131.035 44.125 131.695 44.125 132.375 C42.72314453 132.54322266 42.72314453 132.54322266 41.29296875 132.71484375 C34.08536158 133.7472999 28.17012003 135.14400329 21.828125 138.80810547 C12.30111527 144.2325044 3.56824332 145.24170741 -7.1875 145.1875 C-8.19756104 145.18959976 -8.19756104 145.18959976 -9.22802734 145.19174194 C-19.54784352 145.1535239 -32.64644735 144.59582058 -40.75 137.375 C-41.26046875 136.86066406 -41.7709375 136.34632813 -42.296875 135.81640625 C-44.08496256 134.18322726 -45.80302008 133.31741489 -48 132.3125 C-51.71837663 130.57534335 -54.14289466 128.48656441 -56.875 125.375 C-58.0196875 124.1065625 -58.0196875 124.1065625 -59.1875 122.8125 C-60.875 120.375 -60.875 120.375 -60.875 116.375 C-61.803125 116.0965625 -61.803125 116.0965625 -62.75 115.8125 C-65.93102866 113.66062767 -66.06951947 110.99966237 -66.875 107.375 C-67.535 107.375 -68.195 107.375 -68.875 107.375 C-70.97960399 101.44001676 -72.63593356 95.54780372 -73.875 89.375 C-74.05417969 88.66988281 -74.23335937 87.96476562 -74.41796875 87.23828125 C-77.83316951 65.84219442 -73.08785618 46.59576961 -61.13671875 28.81640625 C-60.72035156 28.34074219 -60.30398437 27.86507812 -59.875 27.375 C-59.215 27.375 -58.555 27.375 -57.875 27.375 C-57.6275 26.7975 -57.38 26.22 -57.125 25.625 C-54.09694973 20.17450952 -47.46736357 14.17118179 -41.875 11.375 C-40.54177292 11.34821642 -39.20839762 11.32870448 -37.875 11.3125 C-23.89521719 10.1218577 -14.15440852 -0.02012634 0 0 Z " fill="#FCF9E7" transform="translate(96.875,29.625)"/>
<path d="M0 0 C1.55207153 0.0002417 1.55207153 0.0002417 3.13549805 0.00048828 C11.17771757 0.12011732 21.08949494 0.33949494 27.125 6.375 C28.91770313 7.09320344 30.73406119 7.75337937 32.5625 8.375 C35.82963616 9.48869755 38.23274507 10.44683005 41.125 12.375 C41.125 13.035 41.125 13.695 41.125 14.375 C41.84945312 14.61347656 42.57390625 14.85195313 43.3203125 15.09765625 C56.07537547 20.90671696 63.9892478 37.29410401 69.0625 49.66015625 C71.73200097 57.34780568 71.83505368 65.31649182 72.125 73.375 C71.795 72.055 71.465 70.735 71.125 69.375 C70.795 70.365 70.465 71.355 70.125 72.375 C69.06051132 72.3904612 69.06051132 72.3904612 67.97451782 72.40623474 C61.29392967 72.50412188 54.61343025 72.60662371 47.93299294 72.71433926 C44.49833017 72.76955623 41.06365887 72.82297423 37.62890625 72.87231445 C33.68220111 72.92908707 29.73564158 72.99362398 25.7890625 73.05859375 C23.93433823 73.08366249 23.93433823 73.08366249 22.04214478 73.10923767 C20.90111298 73.12918289 19.76008118 73.14912811 18.58447266 73.16967773 C17.576315 73.18522202 16.56815735 73.2007663 15.52944946 73.21678162 C13.11233556 73.2198655 13.11233556 73.2198655 11.125 74.375 C9.99149466 76.39169827 9.99149466 76.39169827 9.125 78.375 C7.475 78.375 5.825 78.375 4.125 78.375 C3.125 76.375 2.125 74.375 1.125 72.375 C-0.77033342 71.90976937 -0.77033342 71.90976937 -2.9375 71.75 C-4.8865625 71.564375 -4.8865625 71.564375 -6.875 71.375 C-6.854375 72.344375 -6.83375 73.31375 -6.8125 74.3125 C-6.875 77.375 -6.875 77.375 -7.875 78.375 C-9.54117115 78.41563832 -11.20888095 78.417721 -12.875 78.375 C-12.875 77.385 -12.875 76.395 -12.875 75.375 C-32.675 75.375 -52.475 75.375 -72.875 75.375 C-72.875 74.715 -72.875 74.055 -72.875 73.375 C-73.535 73.045 -74.195 72.715 -74.875 72.375 C-75.41335943 56.22421708 -70.75017878 39.79896585 -59.875 27.375 C-59.215 27.375 -58.555 27.375 -57.875 27.375 C-57.6275 26.7975 -57.38 26.22 -57.125 25.625 C-54.09694973 20.17450952 -47.46736357 14.17118179 -41.875 11.375 C-40.54177292 11.34821642 -39.20839762 11.32870448 -37.875 11.3125 C-23.89521719 10.1218577 -14.15440852 -0.02012634 0 0 Z " fill="#FCFBF3" transform="translate(96.875,29.625)"/>
<path d="M0 0 C24.75 0.495 24.75 0.495 50 1 C49.24889263 6.25775162 48.4258418 10.22750454 46.6875 15.125 C46.07455078 16.89230469 46.07455078 16.89230469 45.44921875 18.6953125 C44.00052766 21.99879677 42.32433807 24.26937519 40 27 C39.525625 27.99 39.05125 28.98 38.5625 30 C35.68441867 35.52591615 31.27636154 38.83418308 26 42 C25.34 42 24.68 42 24 42 C24 42.66 24 43.32 24 44 C23.06542969 44.11214844 22.13085938 44.22429687 21.16796875 44.33984375 C13.96036158 45.3722999 8.04512003 46.76900329 1.703125 50.43310547 C-7.82388473 55.8575044 -16.55675668 56.86670741 -27.3125 56.8125 C-28.32256104 56.81459976 -28.32256104 56.81459976 -29.35302734 56.81674194 C-39.67163963 56.77852836 -52.77302725 56.22142828 -60.875 49 C-61.38160156 48.48695313 -61.88820313 47.97390625 -62.41015625 47.4453125 C-64.74353063 45.32406306 -67.40763755 44.24832243 -70.30078125 43.0546875 C-72.46414231 41.71191167 -72.94931062 40.27357588 -74 38 C-72.32828735 38.01571045 -72.32828735 38.01571045 -70.62280273 38.03173828 C-66.46495815 38.0680979 -62.30712747 38.09095832 -58.14916992 38.10986328 C-56.35389844 38.1198846 -54.55864312 38.13350533 -52.76342773 38.15087891 C-50.17427565 38.17529809 -47.58534049 38.18652198 -44.99609375 38.1953125 C-44.20101913 38.20563507 -43.40594452 38.21595764 -42.58677673 38.22659302 C-37.68706701 38.22756658 -33.60140411 37.75061887 -29 36 C-27.48207356 33.50358872 -27.48207356 33.50358872 -27 31 C-23.7 31 -20.4 31 -17 31 C-16.505 34.465 -16.505 34.465 -16 38 C-15.01 38 -14.02 38 -13 38 C-12.67 35.69 -12.34 33.38 -12 31 C-8.37 30.67 -4.74 30.34 -1 30 C-1 29.34 -1 28.68 -1 28 C-4.63 27.67 -8.26 27.34 -12 27 C-12 26.34 -12 25.68 -12 25 C-10.02 24.34 -8.04 23.68 -6 23 C-5.94615479 20.70858714 -5.90727913 18.41681812 -5.875 16.125 C-5.85179688 14.84882813 -5.82859375 13.57265625 -5.8046875 12.2578125 C-5.64358476 8.91406662 -5.64358476 8.91406662 -8 7 C-8 6.01 -8 5.02 -8 4 C-4.535 3.505 -4.535 3.505 -1 3 C-0.67 2.01 -0.34 1.02 0 0 Z " fill="#FDFBEF" transform="translate(117,118)"/>
<path d="M0 0 C0.78375 0.04125 1.5675 0.0825 2.375 0.125 C2.375 0.785 2.375 1.445 2.375 2.125 C5.345 2.125 8.315 2.125 11.375 2.125 C11.375 2.785 11.375 3.445 11.375 4.125 C12.035 4.125 12.695 4.125 13.375 4.125 C13.705 2.805 14.035 1.485 14.375 0.125 C16.025 0.125 17.675 0.125 19.375 0.125 C19.375 0.785 19.375 1.445 19.375 2.125 C23.335 2.125 27.295 2.125 31.375 2.125 C31.87 4.6 31.87 4.6 32.375 7.125 C30.065 7.125 27.755 7.125 25.375 7.125 C26.10783203 8.14013672 26.10783203 8.14013672 26.85546875 9.17578125 C28.71430958 12.78355715 28.74282227 15.27397402 28.6875 19.3125 C28.68363281 20.54355469 28.67976563 21.77460938 28.67578125 23.04296875 C28.375 26.125 28.375 26.125 26.375 28.125 C23.75 28.25 23.75 28.25 21.375 28.125 C21.375 28.785 21.375 29.445 21.375 30.125 C25.005 30.125 28.635 30.125 32.375 30.125 C32.375 31.445 32.375 32.765 32.375 34.125 C28.745 34.125 25.115 34.125 21.375 34.125 C21.375 36.435 21.375 38.745 21.375 41.125 C19.4375 41.6875 19.4375 41.6875 17.375 42.125 C16.375 41.125 16.375 41.125 16.3125 37.5625 C16.333125 36.428125 16.35375 35.29375 16.375 34.125 C13.075 34.125 9.775 34.125 6.375 34.125 C6.189375 34.888125 6.00375 35.65125 5.8125 36.4375 C3.76200986 40.27102505 1.43112615 40.81878988 -2.625 42.125 C-5.5625 42.3125 -5.5625 42.3125 -7.625 42.125 C-7.625 40.475 -7.625 38.825 -7.625 37.125 C-4.985 36.465 -2.345 35.805 0.375 35.125 C-2.925 34.795 -6.225 34.465 -9.625 34.125 C-9.625 32.805 -9.625 31.485 -9.625 30.125 C-5.665 30.125 -1.705 30.125 2.375 30.125 C2.375 29.465 2.375 28.805 2.375 28.125 C1.405625 28.145625 0.43625 28.16625 -0.5625 28.1875 C-3.625 28.125 -3.625 28.125 -4.625 27.125 C-4.69819621 24.42845146 -4.71742537 21.75808542 -4.6875 19.0625 C-4.68298828 18.30388672 -4.67847656 17.54527344 -4.67382812 16.76367188 C-4.6620068 14.88408129 -4.64407078 13.00453101 -4.625 11.125 C-2.645 10.795 -0.665 10.465 1.375 10.125 C1.375 9.135 1.375 8.145 1.375 7.125 C-1.54017292 8.19901108 -3.40310176 8.90310176 -5.625 11.125 C-7.75 10.75 -7.75 10.75 -9.625 10.125 C-9.625 7.125 -9.625 7.125 -7.25 4.5625 C-6.38375 3.758125 -5.5175 2.95375 -4.625 2.125 C-2.625 0.125 -2.625 0.125 0 0 Z " fill="#4A4A4A" transform="translate(83.625,114.875)"/>
<path d="M0 0 C1.65 0 3.3 0 5 0 C5 4.29 5 8.58 5 13 C7.64 13 10.28 13 13 13 C13.38218767 14.65614657 13.71395102 16.32457024 14 18 C13.505 18.495 13.505 18.495 13 19 C10.36 19 7.72 19 5 19 C5 26.26 5 33.52 5 41 C2.525 41.495 2.525 41.495 0 42 C-1.2263757 39.54724859 -1.11415314 37.9494219 -1.09765625 35.2109375 C-1.09515869 34.36321777 -1.09266113 33.51549805 -1.09008789 32.64208984 C-1.08098389 31.5639502 -1.07187988 30.48581055 -1.0625 29.375 C-1.041875 25.95125 -1.02125 22.5275 -1 19 C-9.25 18.67 -17.5 18.34 -26 18 C-26 16.68 -26 15.36 -26 14 C-17.42 14 -8.84 14 0 14 C0 9.38 0 4.76 0 0 Z " fill="#484848" transform="translate(102,52)"/>
<path d="M0 0 C0.8452977 -0.00287018 1.6905954 -0.00574036 2.56150818 -0.00869751 C4.34073561 -0.01073092 6.11998577 -0.0052518 7.89916992 0.00732422 C10.6162321 0.02340872 13.33181143 0.00744112 16.04882812 -0.01171875 C17.78255535 -0.00973658 19.51628166 -0.00589345 21.25 0 C22.05844864 -0.00607269 22.86689728 -0.01214539 23.69984436 -0.0184021 C28.26610914 0.0383352 31.37900563 0.37827212 35.05859375 3.3984375 C35.05859375 4.0584375 35.05859375 4.7184375 35.05859375 5.3984375 C34.20201172 5.40723686 34.20201172 5.40723686 33.328125 5.41621399 C27.35759167 5.48039693 21.387585 5.5648795 15.41748047 5.66088867 C13.19261643 5.69404008 10.96767027 5.72210216 8.74267578 5.74487305 C5.53512745 5.77859895 2.32832509 5.83092462 -0.87890625 5.88671875 C-1.86568359 5.89310867 -2.85246094 5.8994986 -3.86914062 5.90608215 C-11.82373812 6.07352091 -18.17457443 7.19138667 -24 13.05859375 C-30.04969722 17.99842171 -36.53759343 17.17079924 -44.00390625 16.8359375 C-45.35994479 16.80075152 -46.71607201 16.76882537 -48.07226562 16.74023438 C-51.36427861 16.65822693 -54.65166958 16.54349324 -57.94140625 16.3984375 C-56.75268555 14.41894531 -56.75268555 14.41894531 -54.94140625 12.3984375 C-52.65161133 11.97949219 -52.65161133 11.97949219 -49.9609375 12.0703125 C-48.47279541 12.08408936 -48.47279541 12.08408936 -46.95458984 12.09814453 C-45.89836426 12.11474121 -44.84213867 12.13133789 -43.75390625 12.1484375 C-32.17428157 12.03581209 -24.64999941 9.410747 -14.94140625 3.3984375 C-9.8070982 0.2900689 -5.82841542 -0.04389026 0 0 Z " fill="#FBEB7D" transform="translate(99.94140625,38.6015625)"/>
<path d="M0 0 C1.051875 0.02255859 2.10375 0.04511719 3.1875 0.06835938 C5.75155243 0.12663329 8.31247076 0.20837122 10.875 0.3125 C10.875 0.9725 10.875 1.6325 10.875 2.3125 C13.515 2.9725 16.155 3.6325 18.875 4.3125 C18.875 4.6425 18.875 4.9725 18.875 5.3125 C18.14087891 5.30089844 17.40675781 5.28929687 16.65039062 5.27734375 C1.00524548 5.14019157 -10.84437599 5.81157753 -24.125 14.3125 C-29.26550052 17.44729363 -33.15741387 17.69310242 -39 17.5 C-40.175625 17.47969727 -40.175625 17.47969727 -41.375 17.45898438 C-43.29196782 17.42391789 -45.20857751 17.37012072 -47.125 17.3125 C-44.44537203 14.1516534 -42.88978984 12.48424228 -38.78515625 11.5625 C-37.59792969 11.48 -36.41070312 11.3975 -35.1875 11.3125 C-29.16534001 10.64337111 -26.52519664 9.61269217 -22.125 5.3125 C-14.8415945 0.48551368 -8.58845345 -0.35512053 0 0 Z " fill="#FCEA76" transform="translate(98.125,29.6875)"/>
<path d="M0 0 C4.3177458 0.50797009 8.03302114 1.19682779 12 3 C12 3.66 12 4.32 12 5 C2.1 5.33 -7.8 5.66 -18 6 C-18 6.99 -18 7.98 -18 9 C-18.63091553 9.29769287 -19.26183105 9.59538574 -19.91186523 9.90209961 C-22.75479352 11.2450233 -25.59616151 12.59121615 -28.4375 13.9375 C-29.43072266 14.40607422 -30.42394531 14.87464844 -31.44726562 15.35742188 C-32.39150391 15.80537109 -33.33574219 16.25332031 -34.30859375 16.71484375 C-35.18314209 17.12855225 -36.05769043 17.54226074 -36.95874023 17.96850586 C-38.94083413 18.83676941 -38.94083413 18.83676941 -40 20 C-41.7559663 20.13340015 -43.51683432 20.20343476 -45.27734375 20.24609375 C-46.34791016 20.27896484 -47.41847656 20.31183594 -48.52148438 20.34570312 C-50.79482297 20.40679341 -53.0682665 20.46409864 -55.34179688 20.51757812 C-56.94958008 20.56881836 -56.94958008 20.56881836 -58.58984375 20.62109375 C-59.57847412 20.6461499 -60.56710449 20.67120605 -61.58569336 20.69702148 C-64.18097538 20.7719371 -64.18097538 20.7719371 -66 23 C-52.635 23.495 -52.635 23.495 -39 24 C-39 24.33 -39 24.66 -39 25 C-48.57 25 -58.14 25 -68 25 C-67 20 -67 20 -64.75 18.5 C-63.8425 18.005 -62.935 17.51 -62 17 C-60.31337542 15.35353315 -58.64488294 13.68816933 -57 12 C-53.88377101 9.92251401 -52.94603733 9.74955434 -49.375 9.5625 C-44.24154665 9.15484341 -39.78932614 7.83937888 -35 6 C-37.3411108 8.89712461 -38.61686295 9.91641468 -42.3125 10.72265625 C-43.529375 10.83480469 -44.74625 10.94695313 -46 11.0625 C-50.62070569 11.49813857 -53.53134081 11.80016189 -57 15 C-43.10065418 16.33078843 -33.93658112 12.71525537 -22.3125 5.28125 C-17.18665772 3.29861289 -12.07608493 3.42486041 -6.625 3.3125 C-4.94857422 3.26125977 -4.94857422 3.26125977 -3.23828125 3.20898438 C-0.49228778 3.12683927 2.25339982 3.05757872 5 3 C3.35 2.34 1.7 1.68 0 1 C0 0.67 0 0.34 0 0 Z " fill="#FDF9D4" transform="translate(109,31)"/>
<path d="M0 0 C1.1859375 0.00257812 2.371875 0.00515625 3.59375 0.0078125 C4.7796875 0.00523438 5.965625 0.00265625 7.1875 0 C10.09375 0.1328125 10.09375 0.1328125 11.09375 1.1328125 C11.19248816 3.13080822 11.22346799 5.13238408 11.21875 7.1328125 C11.22132812 8.2259375 11.22390625 9.3190625 11.2265625 10.4453125 C11.09375 13.1328125 11.09375 13.1328125 10.09375 14.1328125 C7.92894203 14.2317419 5.76081215 14.2625235 3.59375 14.2578125 C2.4078125 14.26039062 1.221875 14.26296875 0 14.265625 C-2.90625 14.1328125 -2.90625 14.1328125 -3.90625 13.1328125 C-4.00498816 11.13481678 -4.03596799 9.13324092 -4.03125 7.1328125 C-4.03382812 6.0396875 -4.03640625 4.9465625 -4.0390625 3.8203125 C-3.8541771 0.07910203 -3.77031877 0.17229951 0 0 Z " fill="#3F3F3F" transform="translate(79.90625,77.8671875)"/>
<path d="M0 0 C14.52 0 29.04 0 44 0 C44.495 1.98 44.495 1.98 45 4 C30.15 4 15.3 4 0 4 C0 2.68 0 1.36 0 0 Z " fill="#FCEB7B" transform="translate(25,85)"/>
<path d="M0 0 C13.86 0 27.72 0 42 0 C42 1.32 42 2.64 42 4 C27.81 4 13.62 4 -1 4 C-0.67 2.68 -0.34 1.36 0 0 Z " fill="#FBEB83" transform="translate(123,82)"/>
<path d="M0 0 C18.48 0 36.96 0 56 0 C56 0.99 56 1.98 56 3 C37.52 3 19.04 3 0 3 C0 2.01 0 1.02 0 0 Z " fill="#FAEA7F" transform="translate(111,108)"/>
<path d="M0 0 C1.20079193 0.00007553 2.40158386 0.00015106 3.63876343 0.00022888 C4.92022247 0.00539017 6.20168152 0.01055145 7.52197266 0.01586914 C8.85861152 0.01773645 10.19525107 0.01915887 11.53189087 0.02015686 C15.03352785 0.02395744 18.53512271 0.03376648 22.03674316 0.04486084 C25.61644929 0.05512807 29.19616227 0.05966582 32.77587891 0.06469727 C39.78761485 0.07539117 46.79932298 0.09243775 53.81103516 0.11352539 C53.81103516 0.77352539 53.81103516 1.43352539 53.81103516 2.11352539 C52.74654648 2.12898659 52.74654648 2.12898659 51.66055298 2.14476013 C44.97996483 2.24264727 38.2994654 2.3451491 31.61902809 2.45286465 C28.18436532 2.50808162 24.74969402 2.56149962 21.31494141 2.61083984 C17.36823626 2.66761246 13.42167673 2.73214937 9.47509766 2.79711914 C7.62037338 2.82218788 7.62037338 2.82218788 5.72817993 2.84776306 C4.58714813 2.86770828 3.44611633 2.8876535 2.27050781 2.90820312 C1.26235016 2.92374741 0.2541925 2.93929169 -0.78451538 2.95530701 C-3.20162929 2.95839089 -3.20162929 2.95839089 -5.18896484 4.11352539 C-6.32247018 6.13022366 -6.32247018 6.13022366 -7.18896484 8.11352539 C-8.83896484 8.11352539 -10.48896484 8.11352539 -12.18896484 8.11352539 C-12.18896484 5.80352539 -12.18896484 3.49352539 -12.18896484 1.11352539 C-8.07011999 0.33662127 -4.18906309 -0.00883769 0 0 Z " fill="#F8E66F" transform="translate(113.18896484375,99.886474609375)"/>
<path d="M0 0 C18.15 0 36.3 0 55 0 C52 3 52 3 49.66511536 3.36076355 C48.74800278 3.35410172 47.8308902 3.34743988 46.88598633 3.34057617 C45.84513382 3.34034958 44.80428131 3.34012299 43.73188782 3.33988953 C42.04895882 3.31666374 42.04895882 3.31666374 40.33203125 3.29296875 C39.18208176 3.28872391 38.03213226 3.28447906 36.84733582 3.28010559 C33.16882059 3.26329189 29.49085008 3.22563377 25.8125 3.1875 C23.32097144 3.17245669 20.82943432 3.15876767 18.33789062 3.14648438 C12.22507407 3.11337953 6.11257595 3.06315305 0 3 C0 2.01 0 1.02 0 0 Z " fill="#F9E879" transform="translate(24,111)"/>
<path d="M0 0 C1.29349365 0.00523682 2.5869873 0.01047363 3.91967773 0.01586914 C4.9496714 0.01799156 4.9496714 0.01799156 6.00047302 0.02015686 C8.20144949 0.0257706 10.40232557 0.03832532 12.60327148 0.05102539 C14.09220231 0.05603863 15.58113473 0.06060184 17.07006836 0.06469727 C20.72700223 0.07574446 24.38387707 0.09301826 28.04077148 0.11352539 C27.71077148 1.76352539 27.38077148 3.41352539 27.04077148 5.11352539 C16.15077148 5.11352539 5.26077148 5.11352539 -5.95922852 5.11352539 C-3.46900687 0.13308211 -3.46900687 0.13308211 0 0 Z " fill="#FBEA7C" transform="translate(40.959228515625,58.886474609375)"/>
<path d="M0 0 C4.34157052 -0.09905303 8.68253854 -0.17155301 13.02490234 -0.21972656 C14.5012559 -0.23981301 15.97753019 -0.26708801 17.45361328 -0.30175781 C19.57864962 -0.35041184 21.70263234 -0.37299673 23.828125 -0.390625 C25.1059082 -0.41157227 26.38369141 -0.43251953 27.70019531 -0.45410156 C31.52115842 0.07171905 32.65790374 1.01821225 35 4 C34 5 34 5 30.94897461 5.11352539 C29.60008729 5.11336634 28.25119386 5.10767612 26.90234375 5.09765625 C25.83905602 5.09553383 25.83905602 5.09553383 24.75428772 5.09336853 C22.48198288 5.08775443 20.20977525 5.07519963 17.9375 5.0625 C16.40039204 5.05748681 14.86328255 5.05292359 13.32617188 5.04882812 C9.55074358 5.03778042 5.77538829 5.02050641 2 5 C1.34 3.35 0.68 1.7 0 0 Z " fill="#FBEA75" transform="translate(120,56)"/>
<path d="M0 0 C1.4540625 0.0309375 1.4540625 0.0309375 2.9375 0.0625 C2.98004356 2.06204746 2.97830783 4.06291636 2.9375 6.0625 C1.9375 7.0625 1.9375 7.0625 -0.625 7.125 C-1.8315625 7.0940625 -1.8315625 7.0940625 -3.0625 7.0625 C-3.0625 6.0725 -3.0625 5.0825 -3.0625 4.0625 C-22.8625 4.0625 -42.6625 4.0625 -63.0625 4.0625 C-63.0625 3.4025 -63.0625 2.7425 -63.0625 2.0625 C-61.95709618 2.0470388 -61.95709618 2.0470388 -60.82936096 2.03126526 C-53.89828924 1.93345357 -46.96730098 1.83096284 -40.03637791 1.72316074 C-36.47277032 1.66789973 -32.90915457 1.61447482 -29.34545898 1.56518555 C-25.25234755 1.50849468 -21.1593939 1.44392682 -17.06640625 1.37890625 C-15.13831871 1.35383751 -15.13831871 1.35383751 -13.17127991 1.32826233 C-11.99013107 1.30831711 -10.80898224 1.28837189 -9.59204102 1.26782227 C-8.54613297 1.25227798 -7.50022491 1.2367337 -6.42262268 1.22071838 C-3.32469748 1.01303904 -3.35952925 0.06856182 0 0 Z " fill="#FAE76D" transform="translate(87.0625,100.9375)"/>
<path d="M0 0 C7.36891101 -0.07587179 14.73772186 -0.12852436 22.10693359 -0.16479492 C24.61543542 -0.1799103 27.12391072 -0.20040298 29.63232422 -0.22631836 C33.23151182 -0.26258042 36.830351 -0.27969874 40.4296875 -0.29296875 C41.55680145 -0.30845261 42.68391541 -0.32393646 43.84518433 -0.33988953 C44.88611237 -0.34011612 45.92704041 -0.34034271 46.99951172 -0.34057617 C47.91884491 -0.34723801 48.8381781 -0.35389984 49.78536987 -0.36076355 C50.51619781 -0.24171158 51.24702576 -0.12265961 52 0 C52.66 0.99 53.32 1.98 54 3 C36.18 3 18.36 3 0 3 C0 2.01 0 1.02 0 0 Z " fill="#FBE86F" transform="translate(23,94)"/>
<path d="M0 0 C16.5 0 33 0 50 0 C49.67 1.32 49.34 2.64 49 4 C33.16 3.67 17.32 3.34 1 3 C0.67 2.01 0.34 1.02 0 0 Z " fill="#FBEC8C" transform="translate(118,116)"/>
<path d="M0 0 C2.10073853 -0.36076355 2.10073853 -0.36076355 4.72509766 -0.34057617 C5.70596344 -0.34034958 6.68682922 -0.34012299 7.69741821 -0.33988953 C8.75891083 -0.32440567 9.82040344 -0.30892181 10.9140625 -0.29296875 C11.99883881 -0.28872391 13.08361511 -0.28447906 14.20126343 -0.28010559 C17.67609167 -0.263273 21.15034618 -0.22561189 24.625 -0.1875 C26.97655414 -0.17245911 29.32811735 -0.15876967 31.6796875 -0.14648438 C37.45332173 -0.11335454 43.22661989 -0.06310982 49 0 C49 0.99 49 1.98 49 3 C32.17 3 15.34 3 -2 3 C-1.34 2.01 -0.68 1.02 0 0 Z " fill="#FBE975" transform="translate(118,91)"/>
<path d="M0 0 C12.21 0 24.42 0 37 0 C37 1.32 37 2.64 37 4 C24.79 4 12.58 4 0 4 C0 2.68 0 1.36 0 0 Z " fill="#FBEB81" transform="translate(125,73)"/>
<path d="M0 0 C11.88 0 23.76 0 36 0 C36.495 1.98 36.495 1.98 37 4 C24.79 4 12.58 4 0 4 C0 2.68 0 1.36 0 0 Z " fill="#FCF2AC" transform="translate(125,133)"/>
<path d="M0 0 C11.55 0 23.1 0 35 0 C35 1.32 35 2.64 35 4 C23.12 4 11.24 4 -1 4 C-0.67 2.68 -0.34 1.36 0 0 Z " fill="#FBE972" transform="translate(31,68)"/>
<path d="M0 0 C0 0.66 0 1.32 0 2 C-1.12921875 1.9690625 -1.12921875 1.9690625 -2.28125 1.9375 C-11.96694748 2.1255718 -18.73725236 5.25770863 -27.05639648 9.94091797 C-28.01848022 10.46516357 -28.01848022 10.46516357 -29 11 C-29.90387451 11.53036865 -30.80774902 12.0607373 -31.73901367 12.60717773 C-35.53698131 14.22935377 -38.75542536 14.38372166 -42.8046875 14.29296875 C-43.5286673 14.28872391 -44.25264709 14.28447906 -44.99856567 14.28010559 C-47.29110287 14.26342972 -49.58273246 14.22580081 -51.875 14.1875 C-53.43748722 14.17243871 -54.99998835 14.15875284 -56.5625 14.14648438 C-60.37534505 14.11356293 -64.18751911 14.06186002 -68 14 C-68 13.34 -68 12.68 -68 12 C-66.72660767 12.04096802 -66.72660767 12.04096802 -65.42749023 12.08276367 C-48.79315006 12.47441076 -35.42656959 12.16942218 -20.52099609 3.88623047 C-13.40686276 -0.04866441 -8.21500078 -1.56100783 0 0 Z " fill="#FAEE98" transform="translate(140,159)"/>
<path d="M0 0 C11.22 0 22.44 0 34 0 C34 1.32 34 2.64 34 4 C22.78 4 11.56 4 0 4 C0 2.68 0 1.36 0 0 Z " fill="#FBEA78" transform="translate(124,65)"/>
<path d="M0 0 C4.19915307 -0.09907258 8.39768252 -0.17156173 12.59765625 -0.21972656 C14.02551121 -0.23980982 15.45328425 -0.26708252 16.88085938 -0.30175781 C18.93640368 -0.35042669 20.99085855 -0.37299967 23.046875 -0.390625 C24.28276367 -0.41157227 25.51865234 -0.43251953 26.79199219 -0.45410156 C30.54827491 0.07760969 31.68359893 1.07668162 34 4 C29.80084693 4.09907258 25.60231748 4.17156173 21.40234375 4.21972656 C19.97448879 4.23980982 18.54671575 4.26708252 17.11914062 4.30175781 C15.06359632 4.35042669 13.00914145 4.37299967 10.953125 4.390625 C9.71723633 4.41157227 8.48134766 4.43251953 7.20800781 4.45410156 C3.45172509 3.92239031 2.31640107 2.92331838 0 0 Z " fill="#FCE96E" transform="translate(112,48)"/>
<path d="M0 0 C9.24 0 18.48 0 28 0 C28.66 1.32 29.32 2.64 30 4 C25.90661348 4.04939115 21.81334202 4.08571501 17.71972656 4.10986328 C16.32679219 4.11992877 14.93387898 4.13358234 13.54101562 4.15087891 C11.5404564 4.1751022 9.53974385 4.18540814 7.5390625 4.1953125 C6.33459473 4.20578613 5.13012695 4.21625977 3.88916016 4.22705078 C1 4 1 4 -1 2 C-0.67 1.34 -0.34 0.68 0 0 Z " fill="#FCF4B8" transform="translate(44,153)"/>
<path d="M0 0 C12.87 0 25.74 0 39 0 C39 0.99 39 1.98 39 3 C26.13 3 13.26 3 0 3 C0 2.01 0 1.02 0 0 Z " fill="#FBEB85" transform="translate(28,128)"/>
<path d="M0 0 C12.54 0 25.08 0 38 0 C38 0.99 38 1.98 38 3 C25.46 3 12.92 3 0 3 C0 2.01 0 1.02 0 0 Z " fill="#FCE86C" transform="translate(28,77)"/>
<path d="M0 0 C5.35682133 -0.0741205 10.71334462 -0.12858776 16.07055664 -0.16479492 C17.89320067 -0.1798876 19.71580836 -0.20036395 21.53833008 -0.22631836 C24.157155 -0.26268103 26.77550007 -0.27972124 29.39453125 -0.29296875 C30.61811089 -0.31619453 30.61811089 -0.31619453 31.8664093 -0.33988953 C37.60944422 -0.34160054 37.60944422 -0.34160054 39.73930359 1.52128601 C40.1553334 2.00926163 40.57136322 2.49723724 41 3 C36.1436398 3.02484561 31.28731716 3.04292865 26.4309082 3.05493164 C24.78116206 3.05993919 23.1314203 3.06674716 21.48168945 3.07543945 C19.10106315 3.08766254 16.72049587 3.09326422 14.33984375 3.09765625 C13.61039047 3.10281754 12.88093719 3.10797882 12.12937927 3.11329651 C7.65058638 3.11377964 3.41992641 2.73285068 -1 2 C-0.67 1.34 -0.34 0.68 0 0 Z " fill="#FCE96A" transform="translate(93,40)"/>
<path d="M0 0 C5.61 0 11.22 0 17 0 C17.33 1.65 17.66 3.3 18 5 C11.73 5 5.46 5 -1 5 C-0.67 3.35 -0.34 1.7 0 0 Z " fill="#4D4D4D" transform="translate(75,59)"/>
<path d="M0 0 C10.23 0 20.46 0 31 0 C31 0.99 31 1.98 31 3 C21.1 3 11.2 3 1 3 C0.67 2.01 0.34 1.02 0 0 Z " fill="#FBED93" transform="translate(37,145)"/>
<path d="M0 0 C1.15242188 0.02707031 2.30484375 0.05414063 3.4921875 0.08203125 C4.36101562 0.11683594 5.22984375 0.15164062 6.125 0.1875 C3.18914053 1.83933893 0.89334355 2.41317312 -2.4375 2.75 C-6.32647309 3.35416162 -9.33429889 4.33566002 -12.6953125 6.31640625 C-27.9731853 15.17130788 -42.74742004 14.11550169 -59.875 13.1875 C-59.875 12.8575 -59.875 12.5275 -59.875 12.1875 C-59.01970703 12.19910156 -58.16441406 12.21070313 -57.28320312 12.22265625 C-33.90373186 12.48280397 -33.90373186 12.48280397 -12.875 3.1875 C-8.34357392 0.5258082 -5.24807972 -0.1606555 0 0 Z " fill="#FDF9D1" transform="translate(133.875,160.8125)"/>
<path d="M0 0 C2.31 0.99 4.62 1.98 7 3 C7 3.33 7 3.66 7 4 C-5.87 4.33 -18.74 4.66 -32 5 C-31.34 4.01 -30.68 3.02 -30 2 C-27.01904297 1.65942383 -27.01904297 1.65942383 -23.2421875 1.70703125 C-22.57913605 1.71127609 -21.91608459 1.71552094 -21.23294067 1.71989441 C-19.11321559 1.73670029 -16.99443812 1.77435299 -14.875 1.8125 C-13.43881581 1.82754451 -12.00261672 1.84123332 -10.56640625 1.85351562 C-7.04396236 1.8866091 -3.52207364 1.9384032 0 2 C0 1.34 0 0.68 0 0 Z " fill="#FEFEFB" transform="translate(121,34)"/>
<path d="M0 0 C4.29 0 8.58 0 13 0 C13.33 1.65 13.66 3.3 14 5 C9.05 5 4.1 5 -1 5 C-0.67 3.35 -0.34 1.7 0 0 Z " fill="#474747" transform="translate(77,53)"/>
<path d="M0 0 C1.16660156 0.00322266 2.33320313 0.00644531 3.53515625 0.00976562 C4.75847656 0.01814453 5.98179687 0.02652344 7.2421875 0.03515625 C8.47324219 0.03966797 9.70429688 0.04417969 10.97265625 0.04882812 C14.02088142 0.06064295 17.06901064 0.07711597 20.1171875 0.09765625 C19.7871875 0.75765625 19.4571875 1.41765625 19.1171875 2.09765625 C18.42157715 2.11223877 17.7259668 2.12682129 17.00927734 2.1418457 C13.83637412 2.21663594 10.66448742 2.31319437 7.4921875 2.41015625 C6.39777344 2.43271484 5.30335938 2.45527344 4.17578125 2.47851562 C-1.65237212 2.6727874 -5.75733972 3.0581317 -10.8828125 6.09765625 C-11.5428125 5.76765625 -12.2028125 5.43765625 -12.8828125 5.09765625 C-8.14857012 1.23551115 -6.11247918 -0.02967223 0 0 Z " fill="#FAED96" transform="translate(128.8828125,150.90234375)"/>
<path d="M0 0 C4.95 0 9.9 0 15 0 C15 1.32 15 2.64 15 4 C10.05 4 5.1 4 0 4 C0 2.68 0 1.36 0 0 Z " fill="#3E3E3E" transform="translate(76,72)"/>
<path d="M0 0 C0.33 0 0.66 0 1 0 C1 4.29 1 8.58 1 13 C-7.71496045 14.07444718 -16.29145647 14.30741841 -25 13 C-25.33 12.34 -25.66 11.68 -26 11 C-8.14350797 10.81548975 -8.14350797 10.81548975 0 12 C0 8.04 0 4.08 0 0 Z " fill="#B2B2B2" transform="translate(101,53)"/>
<path d="M0 0 C4.3177458 0.50797009 8.03302114 1.19682779 12 3 C12 3.66 12 4.32 12 5 C1.77 5 -8.46 5 -19 5 C-19 4.67 -19 4.34 -19 4 C-11.08 3.67 -3.16 3.34 5 3 C3.35 2.34 1.7 1.68 0 1 C0 0.67 0 0.34 0 0 Z " fill="#FCF5BE" transform="translate(109,31)"/>
<path d="M0 0 C0.66 0.33 1.32 0.66 2 1 C3.44848582 1.08342159 4.90070869 1.10732861 6.3515625 1.09765625 C7.62773438 1.09282227 7.62773438 1.09282227 8.9296875 1.08789062 C9.81914063 1.07951172 10.70859375 1.07113281 11.625 1.0625 C12.97078125 1.05573242 12.97078125 1.05573242 14.34375 1.04882812 C16.56256648 1.03702591 18.78125018 1.02056155 21 1 C20.67 1.99 20.34 2.98 20 4 C12.41 4 4.82 4 -3 4 C-2.01 2.68 -1.02 1.36 0 0 Z " fill="#FEFEFD" transform="translate(48,46)"/>
<path d="M0 0 C4.64473982 -0.07416067 9.28913499 -0.12860615 13.93432617 -0.16479492 C15.51446536 -0.17988094 17.09456269 -0.2003525 18.67456055 -0.22631836 C20.94590585 -0.26271126 23.21669759 -0.27972762 25.48828125 -0.29296875 C26.54780754 -0.31619453 26.54780754 -0.31619453 27.6287384 -0.33988953 C32.55691778 -0.34158031 32.55691778 -0.34158031 34.96948242 1.51831055 C35.47958862 2.25174683 35.47958862 2.25174683 36 3 C35.67 3.66 35.34 4.32 35 5 C34.48791992 4.51104248 33.97583984 4.02208496 33.44824219 3.51831055 C30.11692273 1.45234767 27.72983194 1.65905944 23.828125 1.70703125 C23.1457074 1.71127609 22.46328979 1.71552094 21.76019287 1.71989441 C19.58971996 1.73663028 17.42019021 1.77427041 15.25 1.8125 C13.77475303 1.82755354 12.29949145 1.84124078 10.82421875 1.85351562 C7.21584156 1.88651623 3.6080129 1.93826233 0 2 C0 1.34 0 0.68 0 0 Z " fill="#FCF5C0" transform="translate(111,47)"/>
<path d="M0 0 C1.03125 0.00322266 2.0625 0.00644531 3.125 0.00976562 C4.74535156 0.02233398 4.74535156 0.02233398 6.3984375 0.03515625 C8.03039062 0.04192383 8.03039062 0.04192383 9.6953125 0.04882812 C12.38807539 0.06063849 15.08072938 0.07710847 17.7734375 0.09765625 C17.7734375 0.42765625 17.7734375 0.75765625 17.7734375 1.09765625 C16.8287561 1.18067993 16.8287561 1.18067993 15.86499023 1.26538086 C12.98013062 1.52002861 10.09553618 1.77757017 7.2109375 2.03515625 C6.22029297 2.12216797 5.22964844 2.20917969 4.20898438 2.29882812 C-0.96419781 2.76286772 -6.09408329 3.29863073 -11.2265625 4.09765625 C-7.1777366 0.99355639 -5.1306813 -0.02819056 0 0 Z " fill="#FCF6BA" transform="translate(91.2265625,29.90234375)"/>
<path d="M0 0 C4.29 0 8.58 0 13 0 C13.33 0.99 13.66 1.98 14 3 C9.38 3 4.76 3 0 3 C0 2.01 0 1.02 0 0 Z " fill="#333333" transform="translate(77,66)"/>
<path d="M0 0 C1.98 0 3.96 0 6 0 C6.04254356 1.99954746 6.04080783 4.00041636 6 6 C5 7 5 7 2.4375 7.0625 C1.2309375 7.0315625 1.2309375 7.0315625 0 7 C0 4.69 0 2.38 0 0 Z " fill="#6A6759" transform="translate(84,101)"/>
<path d="M0 0 C1.32 0.66 2.64 1.32 4 2 C3.67 2.66 3.34 3.32 3 4 C-7.56 4 -18.12 4 -29 4 C-29 3.67 -29 3.34 -29 3 C-19.43 2.67 -9.86 2.34 0 2 C0 1.34 0 0.68 0 0 Z " fill="#FBF0A5" transform="translate(151,57)"/>
<path d="M0 0 C1.98 0 3.96 0 6 0 C6 1.98 6 3.96 6 6 C4.02 6 2.04 6 0 6 C0 4.02 0 2.04 0 0 Z " fill="#EBEBEB" transform="translate(81,82)"/>
<path d="M0 0 C1.65 0 3.3 0 5 0 C5 2.31 5 4.62 5 7 C3.35 7 1.7 7 0 7 C0 4.69 0 2.38 0 0 Z " fill="#878366" transform="translate(101,101)"/>
<path d="M0 0 C1.2065625 0.0309375 1.2065625 0.0309375 2.4375 0.0625 C2.4375 2.0425 2.4375 4.0225 2.4375 6.0625 C0.7875 6.0625 -0.8625 6.0625 -2.5625 6.0625 C-2.94468767 4.40635343 -3.27645102 2.73792976 -3.5625 1.0625 C-2.5625 0.0625 -2.5625 0.0625 0 0 Z " fill="#565653" transform="translate(95.5625,100.9375)"/>
<path d="M0 0 C1.32 0 2.64 0 4 0 C4 1.65 4 3.3 4 5 C2.68 5 1.36 5 0 5 C0 3.35 0 1.7 0 0 Z " fill="#A4A4A4" transform="translate(90,121)"/>
<path d="M0 0 C1.32 0.33 2.64 0.66 4 1 C4 1.99 4 2.98 4 4 C2.02 4 0.04 4 -2 4 C-1.34 2.68 -0.68 1.36 0 0 Z " fill="#CCCCCC" transform="translate(100,121)"/>
</svg>
